## USER
{
  "streams": [
    {
      "index": 0,
      "codec_name": "hevc",
      "codec_long_name": "H.265 / HEVC (High Efficiency Video Coding)",
      "profile": "Main",
      "codec_type": "video",
      "codec_tag_string": "hvc1",
      "codec_tag": "0x31637668",
      "width": 5120,
      "height": 2700,
      "coded_width": 5120,
      "coded_height": 2704,
      "closed_captions": 0,
      "film_grain": 0,
      "has_b_frames": 1,
      "pix_fmt": "yuv420p",
      "level": 180,
      "color_range": "tv",
      "color_space": "bt709",
      "color_transfer": "bt709",
      "color_primaries": "bt709",
      "chroma_location": "left",
      "refs": 1,
      "id": "0x1",
      "r_frame_rate": "48000/1001",
      "avg_frame_rate": "48000/1001",
      "time_base": "1/48000",
      "start_pts": 0,
      "start_time": "0.000000",
      "duration_ts": 291291,
      "duration": "6.068562",
      "bit_rate": "164793814",
      "nb_frames": "291",
      "extradata_size": 121,
      "tags": {
        "creation_time": "2023-02-19T10:10:42.000000Z",
        "language": "und",
        "handler_name": "VideoHandler",
        "vendor_id": "[0][0][0][0]"
      }
    }
  ],
  "format": {
    "filename": "/run/media/thomas/98a8fe60-f90c-48f0-a709-426e4eccca70/test/DJI_0414.MP4",
    "nb_streams": 4,
    "nb_programs": 0,
    "format_name": "mov,mp4,m4a,3gp,3g2,mj2",
    "format_long_name": "QuickTime / MOV",
    "start_time": "0.000000",
    "duration": "6.069000",
    "size": "128696469",
    "bit_rate": "169644381",
    "probe_score": 100,
    "tags": {
      "major_brand": "isom",
      "minor_version": "512",
      "compatible_brands": "isomiso2mp41",
      "creation_time": "2023-02-19T10:10:42.000000Z",
      "encoder": "DJIMavic3"
    }
  }
}


## ASSISTANT
This is a JSON representation of metadata for a video file. Here is a summary of the key information:

- Filename: DJI_0414.MP4
- File format: QuickTime / MOV (mov, mp4, m4a, 3gp, 3g2, mj2)
- File size: 128,696,469 bytes
- Duration: 6.069 seconds
- Overall bit rate: 169,644,381 bps

Video Stream:
- Codec: H.265 / HEVC (High Efficiency Video Coding)
- Profile: Main
- Resolution: 5120x2700 pixels
- Pixel format: yuv420p
- Frame rate: 48,000/1,001 (approximately 47.95 fps)
- Bit rate: 164,793,814 bps
- Color space: bt709
- Color primaries: bt709
- Color transfer: bt709
- Chroma location: left
- Number of frames: 291

Additional Metadata:
- Creation time: 2023-02-19T10:10:42.000000Z
- Video encoder: DJIMavic3

Please note that this JSON only contains information about the video stream, and there are other streams (such as audio) in the file, as indicated by the "nb_streams" field which has a value of 4.

## USER
{
  "streams": [
    {
      "index": 0,
      "codec_name": "hevc",
      "codec_long_name": "H.265 / HEVC (High Efficiency Video Coding)",
      "profile": "Main 10",
      "codec_type": "video",
      "codec_tag_string": "hvc1",
      "codec_tag": "0x31637668",
      "width": 5120,
      "height": 2700,
      "coded_width": 5120,
      "coded_height": 2704,
      "closed_captions": 0,
      "film_grain": 0,
      "has_b_frames": 1,
      "pix_fmt": "yuv420p10le",
      "level": 180,
      "color_range": "tv",
      "color_space": "bt709",
      "color_transfer": "bt709",
      "color_primaries": "bt709",
      "chroma_location": "left",
      "refs": 1,
      "id": "0x1",
      "r_frame_rate": "48000/1001",
      "avg_frame_rate": "48000/1001",
      "time_base": "1/48000",
      "start_pts": 0,
      "start_time": "0.000000",
      "duration_ts": 272272,
      "duration": "5.672333",
      "bit_rate": "165909664",
      "nb_frames": "272",
      "extradata_size": 121,
      "tags": {
        "creation_time": "2023-02-19T10:11:50.000000Z",
        "language": "und",
        "handler_name": "VideoHandler",
        "vendor_id": "[0][0][0][0]"
      }
    }
  ],
  "format": {
    "filename": "/run/media/thomas/98a8fe60-f90c-48f0-a709-426e4eccca70/test/DJI_0415.MP4",
    "nb_streams": 4,
    "nb_programs": 0,
    "format_name": "mov,mp4,m4a,3gp,3g2,mj2",
    "format_long_name": "QuickTime / MOV",
    "start_time": "0.000000",
    "duration": "5.673000",
    "size": "120772390",
    "bit_rate": "170311849",
    "probe_score": 100,
    "tags": {
      "major_brand": "isom",
      "minor_version": "512",
      "compatible_brands": "isomiso2mp41",
      "creation_time": "2023-02-19T10:11:50.000000Z",
      "encoder": "DJIMavic3"
    }
  }
}


## ASSISTANT
This is a JSON representation of metadata for a video file. Here is a summary of the key information:

- Filename: DJI_0415.MP4
- File format: QuickTime / MOV (mov, mp4, m4a, 3gp, 3g2, mj2)
- File size: 120,772,390 bytes
- Duration: 5.673 seconds
- Overall bit rate: 170,311,849 bps

Video Stream:
- Codec: H.265 / HEVC (High Efficiency Video Coding)
- Profile: Main 10
- Resolution: 5120x2700 pixels
- Pixel format: yuv420p10le (10-bit)
- Frame rate: 48,000/1,001 (approximately 47.95 fps)
- Bit rate: 165,909,664 bps
- Color space: bt709
- Color primaries: bt709
- Color transfer: bt709
- Chroma location: left
- Number of frames: 272

Additional Metadata:
- Creation time: 2023-02-19T10:11:50.000000Z
- Video encoder: DJIMavic3

Please note that this JSON only contains information about the video stream, and there are other streams (such as audio) in the file, as indicated by the "nb_streams" field which has a value of 4.

## USER
{
  "streams": [
    {
      "index": 0,
      "codec_name": "h264",
      "codec_long_name": "H.264 / AVC / MPEG-4 AVC / MPEG-4 part 10",
      "profile": "High",
      "codec_type": "video",
      "codec_tag_string": "avc1",
      "codec_tag": "0x31637661",
      "width": 3840,
      "height": 2160,
      "coded_width": 3840,
      "coded_height": 2160,
      "closed_captions": 0,
      "film_grain": 0,
      "has_b_frames": 2,
      "pix_fmt": "yuv420p",
      "level": 51,
      "color_range": "tv",
      "color_space": "bt709",
      "color_transfer": "bt709",
      "color_primaries": "bt709",
      "chroma_location": "left",
      "field_order": "progressive",
      "refs": 1,
      "is_avc": "true",
      "nal_length_size": "4",
      "id": "0x1",
      "r_frame_rate": "50/1",
      "avg_frame_rate": "50/1",
      "time_base": "1/5000",
      "start_pts": 0,
      "start_time": "0.000000",
      "duration_ts": 27200,
      "duration": "5.440000",
      "bit_rate": "161183510",
      "bits_per_raw_sample": "8",
      "nb_frames": "272",
      "extradata_size": 45,
      "tags": {
        "creation_time": "2023-02-19T10:13:50.000000Z",
        "language": "und",
        "handler_name": "VideoHandler",
        "vendor_id": "[0][0][0][0]"
      }
    }
  ],
  "format": {
    "filename": "/run/media/thomas/98a8fe60-f90c-48f0-a709-426e4eccca70/test/DJI_0417.MP4",
    "nb_streams": 4,
    "nb_programs": 0,
    "format_name": "mov,mp4,m4a,3gp,3g2,mj2",
    "format_long_name": "QuickTime / MOV",
    "start_time": "0.000000",
    "duration": "5.440000",
    "size": "112744304",
    "bit_rate": "165800447",
    "probe_score": 100,
    "tags": {
      "major_brand": "isom",
      "minor_version": "512",
      "compatible_brands": "isomiso2avc1mp41",
      "creation_time": "2023-02-19T10:13:50.000000Z",
      "encoder": "DJIMavic3"
    }
  }
}


## ASSISTANT
This is a JSON representation of metadata for a video file. Here is a summary of the key information:

- Filename: DJI_0417.MP4
- File format: QuickTime / MOV (mov, mp4, m4a, 3gp, 3g2, mj2)
- File size: 112,744,304 bytes
- Duration: 5.440 seconds
- Overall bit rate: 165,800,447 bps

Video Stream:
- Codec: H.264 / AVC / MPEG-4 AVC / MPEG-4 part 10
- Profile: High
- Resolution: 3840x2160 pixels (4K)
- Pixel format: yuv420p (8-bit)
- Frame rate: 50 fps
- Bit rate: 161,183,510 bps
- Color space: bt709
- Color primaries: bt709
- Color transfer: bt709
- Chroma location: left
- Number of frames: 272

Additional Metadata:
- Creation time: 2023-02-19T10:13:50.000000Z
- Video encoder: DJIMavic3

Please note that this JSON only contains information about the video stream, and there are other streams (such as audio) in the file, as indicated by the "nb_streams" field which has a value of 4.

## USER
{
  "streams": [
    {
      "index": 0,
      "codec_name": "h264",
      "codec_long_name": "H.264 / AVC / MPEG-4 AVC / MPEG-4 part 10",
      "profile": "High",
      "codec_type": "video",
      "codec_tag_string": "avc1",
      "codec_tag": "0x31637661",
      "width": 3840,
      "height": 2160,
      "coded_width": 3840,
      "coded_height": 2160,
      "closed_captions": 0,
      "film_grain": 0,
      "has_b_frames": 2,
      "pix_fmt": "yuv420p",
      "level": 51,
      "color_range": "tv",
      "color_space": "bt709",
      "color_transfer": "bt709",
      "color_primaries": "bt709",
      "chroma_location": "left",
      "field_order": "progressive",
      "refs": 1,
      "is_avc": "true",
      "nal_length_size": "4",
      "id": "0x1",
      "r_frame_rate": "50/1",
      "avg_frame_rate": "50/1",
      "time_base": "1/5000",
      "start_pts": 0,
      "start_time": "0.000000",
      "duration_ts": 30300,
      "duration": "6.060000",
      "bit_rate": "161311588",
      "bits_per_raw_sample": "8",
      "nb_frames": "303",
      "extradata_size": 45,
      "tags": {
        "creation_time": "2023-02-19T13:06:07.000000Z",
        "language": "und",
        "handler_name": "VideoHandler",
        "vendor_id": "[0][0][0][0]"
      }
    }
  ],
  "format": {
    "filename": "/run/media/thomas/98a8fe60-f90c-48f0-a709-426e4eccca70/test/all_modes/DJI_0422.MP4",
    "nb_streams": 4,
    "nb_programs": 0,
    "format_name": "mov,mp4,m4a,3gp,3g2,mj2",
    "format_long_name": "QuickTime / MOV",
    "start_time": "0.000000",
    "duration": "6.060000",
    "size": "125679812",
    "bit_rate": "165913943",
    "probe_score": 100,
    "tags": {
      "major_brand": "isom",
      "minor_version": "512",
      "compatible_brands": "isomiso2avc1mp41",
      "creation_time": "2023-02-19T13:06:07.000000Z",
      "encoder": "DJIMavic3"
    }
  }
}


## ASSISTANT
This is a JSON representation of metadata for a video file. Here is a summary of the key information:

- Filename: DJI_0422.MP4
- File format: QuickTime / MOV (mov, mp4, m4a, 3gp, 3g2, mj2)
- File size: 125,679,812 bytes
- Duration: 6.060 seconds
- Overall bit rate: 165,913,943 bps

Video Stream:
- Codec: H.264 / AVC / MPEG-4 AVC / MPEG-4 part 10
- Profile: High
- Resolution: 3840x2160 pixels (4K)
- Pixel format: yuv420p (8-bit)
- Frame rate: 50 fps
- Bit rate: 161,311,588 bps
- Color space: bt709
- Color primaries: bt709
- Color transfer: bt709
- Chroma location: left
- Number of frames: 303

Additional Metadata:
- Creation time: 2023-02-19T13:06:07.000000Z
- Video encoder: DJIMavic3

Please note that this JSON only contains information about the video stream, and there are other streams (such as audio) in the file, as indicated by the "nb_streams" field which has a value of 4.

## USER
Which of these is HLG?

## ASSISTANT
None of the provided video files have HLG (Hybrid Log-Gamma) color transfer information. The color transfer for all the video files is mentioned as "bt709". HLG is an HDR (High Dynamic Range) format developed by the BBC and NHK, and it would be indicated by the term "arib-std-b67" or "HLG" in the metadata if it were present.